<svg id="Layer_1" data-name="Layer 1" xmlns="http://www.w3.org/2000/svg" xmlns:xlink="http://www.w3.org/1999/xlink" viewBox="0 0 40 40"><defs><style>.cls-1{fill:#fff;}.cls-2{clip-path:url(#clip-path);}.cls-3{clip-path:url(#clip-path-2);}.cls-4{fill:#231f20;fill-rule:evenodd;}</style><clipPath id="clip-path"><rect class="cls-1" x="-184.41" y="14.5" width="7.12" height="4.27"/></clipPath><clipPath id="clip-path-2"><rect class="cls-1" x="-184.41" y="20.91" width="10.68" height="4.27"/></clipPath></defs><title>about</title><rect class="cls-1" x="-184.41" y="14.5" width="7.12" height="4.27"/><g class="cls-2"><rect class="cls-1" x="-272.01" y="-649.97" width="2734.79" height="1816.07"/></g><rect class="cls-1" x="-184.41" y="20.91" width="10.68" height="4.27"/><g class="cls-3"><rect class="cls-1" x="-272.01" y="-649.97" width="2734.79" height="1816.07"/></g><path class="cls-4" d="M23,21.49l4-2.64V8.95L23,5H17l-4,4v9.9l4,2.64-9.9,3.3v9.9H32.87v-9.9ZM17,10.59l1.64-1.64h2.66L23,10.59v6.14l-3,2-3-2ZM28.91,30.73H11.09V27.65l8.57-2.86h.7l8.56,2.86Z"/></svg>